# AST/ASF file generated using VICON BodyLanguage
# -----------------------------------------------
:version 1.10
:name VICON
:units
  mass 1.0
  length 0.45
  angle deg
:documentation
   .ast/.asf automatically generated from VICON data using
   VICON BodyBuilder and BodyLanguage model FoxedUp or BRILLIANT.MOD
:root
   order TX TY TZ RX RY RZ
   axis XYZ
   position 0 0 0  
   orientation 0 0 0 
:bonedata
  begin
     id 1 
     name lhipjoint
     direction 0.57768 -0.667037 0.470475 
     length 2.36008 
     axis 0 0 0  XYZ
  end
  begin
     id 2 
     name lfemur
     direction 0.34202 -0.939693 0  
     length 6.97235  
     axis 0 0 20  XYZ
    dof rx ry rz
    limits (-160.0 20.0)
           (-70.0 70.0)
           (-60.0 70.0)
  end
  begin
     id 3 
     name ltibia
     direction 0.34202 -0.939693 0   
     length 6.93428   
     axis 0 0 20   XYZ
    dof rx
    limits (-10.0 170.0)
  end
  begin
     id 4 
     name lfoot
     direction 0.133018 -0.365463 0.921272   
     length 2.18603   
     axis -90 7.62852e-016 20   XYZ
    dof rx rz
    limits (-45.0 90.0)
           (-70.0 20.0)
  end
  begin
     id 5 
     name ltoes
     direction 1.53519e-011 -4.22055e-011 1   
     length 1.07924   
     axis -90 7.62852e-016 20   XYZ
    dof rx
    limits (-90.0 20.0)
  end
  begin
     id 6 
     name rhipjoint
     direction -0.577712 -0.667019 0.470462   
     length 2.36015  
     axis 0 0 0  XYZ 
  end
  begin
     id 7 
     name rfemur
     direction -0.34202 -0.939693 0   
     length 6.71195   
     axis 0 0 -20   XYZ
    dof rx ry rz
    limits (-160.0 20.0)
           (-70.0 70.0)
           (-70.0 60.0)
  end
  begin
     id 8 
     name rtibia
     direction -0.34202 -0.939693 0   
     length 7.04592   
     axis 0 0 -20   XYZ
    dof rx
    limits (-10.0 170.0)
 end
 begin
     id 9 
     name rfoot
     direction -0.113796 -0.312651 0.943027   
     length 2.03846  
     axis -90 -7.62852e-016 -20   XYZ
    dof rx rz
    limits (-45.0 90.0)
           (-20.0 70.0)
  end
  begin
     id 10 
     name rtoes
     direction -1.53586e-011 -4.218e-011 1   
     length 1.01562   
     axis -90 -7.62852e-016 -20   XYZ
    dof rx
    limits (-90.0 20.0)
  end
  begin
     id 11 
     name lowerback
     direction -0.0417299 0.991937 -0.119667   
     length 2.05257   
     axis 0 0 0   XYZ
    dof rx ry rz
    limits (-20.0 45.0)
           (-30.0 30.0)
           (-30.0 30.0)
  end
  begin
     id 12 
     name upperback
     direction -0.00017666 0.999999 0.00105178   
     length 2.05693   
     axis 0 0 0   XYZ
    dof rx ry rz
    limits (-20.0 45.0)
           (-30.0 30.0)
           (-30.0 30.0)
  end
  begin
     id 13 
     name thorax
     direction 0.0185169 0.998203 0.0569866   
     length 2.0932   
     axis 0 0 0   XYZ
    dof rx ry rz
    limits (-20.0 45.0)
           (-30.0 30.0)
           (-30.0 30.0)
  end
  begin
     id 14 
     name lowerneck
     direction -0.0212406 0.982645 0.184277   
     length 1.72509   
     axis 0 0 0   XYZ
    dof rx ry rz
    limits (-20.0 45.0)
           (-30.0 30.0)
           (-30.0 30.0)
  end
  begin
     id 15 
     name upperneck
     direction 0.00528579 0.965323 -0.261004   
     length 1.76294   
     axis 0 0 0   XYZ
    dof rx ry rz
    limits (-20.0 45.0)
           (-30.0 30.0)
           (-30.0 30.0)
  end
  begin
     id 16
     name head
     direction 0.00695421 0.994078 -0.108445  
     length 1.78678  
     axis 0 0 0   XYZ
    dof rx ry rz
    limits (-20.0 45.0)
           (-30.0 30.0)
           (-30.0 30.0)
  end
  begin
     id 17 
     name lclavicle
     direction 0.97277 0.211305 -0.095232  
     length 3.84823  
     axis 0 0 0   XYZ
    dof ry rz
    limits (-20.0 10.0)
           (0.0 20.0)
  end
  begin
     id 18 
     name lhumerus
     direction 1 -4.48957e-011 -1.98313e-027   
     length 4.97185   
     axis 180 -30 -90   XYZ
    dof rx ry rz
    limits (-60.0 90.0)
           (-90.0 90.0)
           (-90.0 90.0)
  end
  begin
     id 19
     name lradius
     direction 1 -4.4898e-011 7.31063e-027   
     length 3.35811   
     axis 180 -30 -90   XYZ
    dof rx
    limits (-10.0 170.0)
  end
  begin
     id 20
     name lwrist
     direction 1 -4.48938e-011 9.95048e-027   
     length 1.67905   
     axis -8.75986e-015 90 90   XYZ
    dof ry
    limits (-180.0 0.0)
 end
  begin
     id 21 
     name lhand
     direction 1 -4.4901e-011 1.9901e-026   
     length 0.622776   
     axis -1.26985e-014 90 90   XYZ
    dof rx rz
    limits (-90.0 90.0)
           (-45.0 45.0)
  end
  begin
     id 22 
     name lfingers
     direction 1 -4.48961e-011 3.98019e-026   
     length 0.502098   
     axis -2.5397e-014 90 90   XYZ
    dof rx
    limits (0.0 90.0)
  end
  begin
     id 23
     name lthumb
     direction 0.707107 -6.34933e-011 0.707107   
     length 0.720915   
     axis -90 45 2.85299e-015   XYZ
    dof rx rz
    limits (-45.0 45.0)
           (-45.0 45.0)
  end
  begin
     id 24 
     name rclavicle
     direction -0.990867 0.133739 -0.0172226   
     length 3.78845  
     axis 0 0 0   XYZ 
    dof ry rz
    limits (-10.0 20.0)
           (-20.0 0.0)
  end
  begin
     id 25 
     name rhumerus
     direction -1 -4.48972e-011 -1.99267e-027  
     length 4.96493   
     axis 180 30 90   XYZ
    dof rx ry rz
    limits (-90.0 60.0)
           (-90.0 90.0)
           (-90.0 90.0)
  end
  begin
     id 26 
     name rradius
     direction -1 -4.48969e-011 8.96093e-027   
     length 3.34929   
     axis 180 30 90   XYZ
    dof rx
    limits (-10.0 170.0)
  end
  begin
     id 27 
     name rwrist
     direction -1 -4.48953e-011 9.95048e-027   
     length 1.67464   
     axis -8.75986e-015 -90 -90   XYZ
    dof ry
    limits (-180.0 0.0)
  end
  begin
     id 28
     name rhand
     direction -1 -4.49001e-011 1.9901e-026   
     length 0.638041   
     axis -1.26985e-014 -90 -90   XYZ
    dof rx rz
    limits (-90.0 90.0)
           (-45.0 45.0)
  end
  begin
     id 29
     name rfingers
     direction -1 -4.48967e-011 3.98019e-026   
     length 0.514405   
     axis -2.5397e-014 -90 -90   XYZ
    dof rx
    limits (0.0 90.0)
  end
  begin
     id 30
     name rthumb
     direction -0.707107 -6.34904e-011 0.707107   
     length 0.738586   
     axis -90 -45 -2.85299e-015   XYZ
    dof rx rz
    limits (-45.0 45.0)
           (-45.0 45.0)
  end
:hierarchy
  begin
    root lhipjoint rhipjoint lowerback
    lhipjoint lfemur
    lfemur ltibia
    ltibia lfoot
    lfoot ltoes
    rhipjoint rfemur
    rfemur rtibia
    rtibia rfoot
    rfoot rtoes
    lowerback upperback
    upperback thorax
    thorax lowerneck lclavicle rclavicle
    lowerneck upperneck
    upperneck head
    lclavicle lhumerus
    lhumerus lradius
    lradius lwrist
    lwrist lhand lthumb
    lhand lfingers
    rclavicle rhumerus
    rhumerus rradius
    rradius rwrist
    rwrist rhand rthumb
    rhand rfingers
  end

#!OML:ASF E:\Mandelcareful walks\Project 1\Capture day 1\Session 1\Subject1.ASF
:FULLY-SPECIFIED
:DEGREES
245
root 30.5284 16.496 11.576 23.1791 128.871 22.9044
lowerback 2.74647 4.87974 5.04691
upperback 4.74027 6.72219 1.93746
thorax 3.70989 3.58731 -0.736859
lowerneck -23.0366 11.674 7.61324
upperneck 30.0521 24.0821 -17.3673
head 18.8011 9.12516 -2.99867
rclavicle -1.41932e-013 -3.26007e-014
rhumerus -37.9514 20.3551 -79.0658
rradius 77.336
rwrist -24.1112
rhand -9.05616 -14.809
rfingers 7.12502
rthumb 16.8924 -44.0943
lclavicle -1.41932e-013 -3.26007e-014
lhumerus -67.7298 -21.9306 97.998
lradius 63.9174
lwrist 24.8437
lhand -23.593 -14.302
lfingers 7.12502
lthumb 2.87039 15.6584
rfemur 5.7688 -13.2062 21.2857
rtibia 33.4582
rfoot 1.03432 -8.143
rtoes -23.3808
lfemur -41.5855 15.0604 -28.9632
ltibia 36.9032
lfoot -13.5528 10.6656
ltoes 15.7938
246
root 30.9817 16.5542 11.2484 24.9272 130.013 24.6816
lowerback 1.28929 5.34194 6.11347
upperback 4.51421 7.22755 2.17985
thorax 4.43004 3.87286 -0.904132
lowerneck -22.9444 11.7774 7.88902
upperneck 29.947 24.1391 -17.347
head 18.7654 9.20139 -3.01239
rclavicle 1.76918e-014 7.95139e-016
rhumerus -38.6452 21.0134 -79.8078
rradius 77.7439
rwrist -24.262
rhand -9.52142 -12.3935
rfingers 7.12502
rthumb 16.4445 -41.7166
lclavicle 1.76918e-014 7.95139e-016
lhumerus -68.1418 -21.7597 97.4781
lradius 63.8823
lwrist 25.0159
lhand -23.3269 -14.6947
lfingers 7.12502
lthumb 3.12745 15.2621
rfemur 5.58791 -12.6242 22.2169
rtibia 35.3502
rfoot 4.26121 -6.90849
rtoes -17.1772
lfemur -41.25 16.6262 -28.9972
ltibia 34.1181
lfoot -11.0252 12.2555
ltoes 20.4068
247
root 31.4484 16.5515 10.944 25.8491 130.799 26.2971
lowerback 0.471975 5.70851 6.44839
upperback 4.54885 7.64949 2.58425
thorax 4.94744 4.10011 -0.549306
lowerneck -23.5573 11.8025 7.99895
upperneck 30.5215 24.2329 -17.0323
head 19.2046 9.21557 -2.84493
rclavicle 8.34896e-015 1.90833e-014
rhumerus -38.9618 22.0736 -80.4363
rradius 78.0677
rwrist -24.441
rhand -9.08064 -13.9411
rfingers 7.12502
rthumb 16.8688 -43.2284
lclavicle 8.34896e-015 1.90833e-014
lhumerus -68.8455 -21.6107 96.9991
lradius 64.5123
lwrist 25.1489
lhand -21.8521 -15.4183
lfingers 7.12502
lthumb 4.55161 14.5128
rfemur 5.11487 -11.6519 22.9844
rtibia 38.9694
rfoot 6.81712 -7.20705
rtoes -10.4428
lfemur -40.1864 17.3822 -28.0515
ltibia 33.2484
lfoot -9.48152 13.7279
ltoes 24.1187
248
root 31.8069 16.4737 10.5992 24.9152 131.803 25.0759
lowerback 0.117556 5.62148 6.65326
upperback 4.30188 7.49403 2.33908
thorax 4.94013 4.02085 -0.897061
lowerneck -23.4101 12.0169 7.72931
upperneck 30.583 24.4292 -16.4267
head 19.0305 9.3397 -2.48191
rclavicle 3.77691e-014 -1.74931e-014
rhumerus -39.3488 23.2609 -80.8338
rradius 77.9033
rwrist -24.5935
rhand -9.01998 -13.4713
rfingers 7.12502
rthumb 16.9272 -42.7537
lclavicle 3.77691e-014 -1.74931e-014
lhumerus -69.7408 -21.1894 96.6964
lradius 65.309
lwrist 24.9568
lhand -21.0346 -16.1114
lfingers 7.12502
lthumb 5.34098 13.8013
rfemur 3.81637 -13.1269 20.7133
rtibia 43.8104
rfoot 8.76802 -9.85432
rtoes 9.48403
lfemur -39.2187 17.5235 -29.6042
ltibia 33.7151
lfoot -8.19792 13.561
ltoes 24.0668
249
root 32.2081 16.339 10.3349 24.3847 132.598 26.7056
lowerback 1.73729 5.73207 7.5608
upperback 4.45378 7.81739 2.86243
thorax 4.26126 4.22255 -1.00264
lowerneck -22.8727 11.9685 7.86291
upperneck 30.3174 24.3352 -16.5525
head 18.7796 9.37617 -2.6047
rclavicle 7.37491e-014 -3.49861e-014
rhumerus -39.705 23.7707 -81.0066
rradius 77.6848
rwrist -25.2705
rhand -8.78069 -12.9062
rfingers 7.12502
rthumb 17.1575 -42.1686
lclavicle 7.37491e-014 -3.49861e-014
lhumerus -70.1114 -20.9897 96.402
lradius 65.5078
lwrist 24.3588
lhand -21.286 -16.584
lfingers 7.12502
lthumb 5.0982 13.3347
rfemur 3.54032 -12.3551 21.0322
rtibia 49.4313
rfoot 3.46026 -15.3521
rtoes -7.88467
lfemur -36.1334 17.6655 -27.4627
ltibia 34.9787
lfoot -10.2802 13.0295
ltoes 29.3836
250
root 32.5909 16.1922 10.0787 22.9421 132.821 27.5139
lowerback 3.96119 5.79979 7.74472
upperback 4.6904 8.17838 3.2981
thorax 3.25032 4.41382 -0.89697
lowerneck -22.4158 11.8387 8.00928
upperneck 30.3295 24.3658 -16.8407
head 18.7789 9.43672 -2.76572
rclavicle 8.78628e-014 -7.95139e-016
rhumerus -40.0762 24.5403 -81.1287
rradius 77.0244
rwrist -25.5213
rhand -8.7128 -13.9205
rfingers 7.12502
rthumb 17.2229 -43.1773
lclavicle 8.78628e-014 -7.95139e-016
lhumerus -69.7815 -20.3852 95.9877
lradius 65.107
lwrist 23.5666
lhand -21.5065 -16.5038
lfingers 7.12502
lthumb 4.8853 13.4199
rfemur 2.39078 -10.8905 20.6338
rtibia 55.2684
rfoot 1.78385 -18.5082
rtoes -3.86801
lfemur -32.8058 16.5829 -25.0972
ltibia 36.7908
lfoot -14.4993 12.2868
ltoes 36.2008
